<svg width="20" height="20" viewBox="0 0 20 20" fill="none" xmlns="http://www.w3.org/2000/svg">
<path fill-rule="evenodd" clip-rule="evenodd" d="M7.29175 4.16663C7.29175 3.66934 7.48929 3.19243 7.84092 2.8408C8.19255 2.48917 8.66947 2.29163 9.16675 2.29163H10.8334C11.3307 2.29163 11.8076 2.48917 12.1592 2.8408C12.5109 3.19243 12.7084 3.66934 12.7084 4.16663V4.99996H7.29175V4.16663ZM6.04175 4.99996V4.16663C6.04175 3.33782 6.37099 2.54297 6.95704 1.95692C7.54309 1.37087 8.33795 1.04163 9.16675 1.04163H10.8334C11.6622 1.04163 12.4571 1.37087 13.0431 1.95692C13.6292 2.54297 13.9584 3.33782 13.9584 4.16663V4.99996H15.0001C15.8841 4.99996 16.732 5.35115 17.3571 5.97627C17.9822 6.60139 18.3334 7.44924 18.3334 8.33329V15C18.3334 15.884 17.9822 16.7319 17.3571 17.357C16.732 17.9821 15.8841 18.3333 15.0001 18.3333H5.00008C4.11603 18.3333 3.26818 17.9821 2.64306 17.357C2.01794 16.7319 1.66675 15.884 1.66675 15V8.33329C1.66675 7.44924 2.01794 6.60139 2.64306 5.97627C3.26818 5.35115 4.11603 4.99996 5.00008 4.99996H6.04175ZM10.0001 8.54163C10.1658 8.54163 10.3248 8.60747 10.442 8.72468C10.5592 8.84189 10.6251 9.00087 10.6251 9.16663V11.0416H12.5001C12.6658 11.0416 12.8248 11.1075 12.942 11.2247C13.0592 11.3419 13.1251 11.5009 13.1251 11.6666C13.1251 11.8324 13.0592 11.9914 12.942 12.1086C12.8248 12.2258 12.6658 12.2916 12.5001 12.2916H10.6251V14.1666C10.6251 14.3324 10.5592 14.4914 10.442 14.6086C10.3248 14.7258 10.1658 14.7916 10.0001 14.7916C9.83432 14.7916 9.67535 14.7258 9.55814 14.6086C9.44093 14.4914 9.37508 14.3324 9.37508 14.1666V12.2916H7.50008C7.33432 12.2916 7.17535 12.2258 7.05814 12.1086C6.94093 11.9914 6.87508 11.8324 6.87508 11.6666C6.87508 11.5009 6.94093 11.3419 7.05814 11.2247C7.17535 11.1075 7.33432 11.0416 7.50008 11.0416H9.37508V9.16663C9.37508 9.00087 9.44093 8.84189 9.55814 8.72468C9.67535 8.60747 9.83432 8.54163 10.0001 8.54163Z" fill="#7A88A6"/>
</svg>
