<svg width="20" height="20" viewBox="0 0 20 20" fill="none" xmlns="http://www.w3.org/2000/svg">
<path fill-rule="evenodd" clip-rule="evenodd" d="M8.33333 9.16667C9.21739 9.16667 10.0652 8.81548 10.6904 8.19036C11.3155 7.56523 11.6667 6.71739 11.6667 5.83333C11.6667 4.94928 11.3155 4.10143 10.6904 3.47631C10.0652 2.85119 9.21739 2.5 8.33333 2.5C7.44928 2.5 6.60143 2.85119 5.97631 3.47631C5.35119 4.10143 5 4.94928 5 5.83333C5 6.71739 5.35119 7.56523 5.97631 8.19036C6.60143 8.81548 7.44928 9.16667 8.33333 9.16667ZM8.33333 17.5C11.555 17.5 14.1667 16.0083 14.1667 14.1667C14.1667 12.325 11.555 10.8333 8.33333 10.8333C5.11167 10.8333 2.5 12.325 2.5 14.1667C2.5 16.0083 5.11167 17.5 8.33333 17.5ZM11.6342 9.01333C12.4583 8.16006 12.9183 7.01965 12.9167 5.83333C12.9167 5.24583 12.8058 4.685 12.605 4.16917C12.9655 4.18481 13.3183 4.27829 13.6392 4.4432C13.9602 4.60811 14.2416 4.84054 14.4642 5.12452C14.6868 5.40849 14.8453 5.73729 14.9288 6.08832C15.0123 6.43935 15.0188 6.80429 14.9479 7.15808C14.877 7.51187 14.7303 7.84612 14.518 8.13786C14.3057 8.42961 14.0328 8.67194 13.7179 8.8482C13.4031 9.02447 13.0538 9.1305 12.6941 9.159C12.3344 9.18751 11.9728 9.13781 11.6342 9.01333ZM15.4167 14.1667C15.4167 14.6158 15.3167 15.05 15.1308 15.46C16.5525 15.0175 17.5 14.2317 17.5 13.3333C17.5 12.0783 15.65 11.0392 13.2392 10.8608C14.5808 11.6942 15.4167 12.8675 15.4167 14.1667Z" fill="#7A88A6"/>
</svg>
