<svg width="20" height="20" viewBox="0 0 20 20" fill="none" xmlns="http://www.w3.org/2000/svg">
<path d="M1.66675 3.33329C1.66675 2.89127 1.84234 2.46734 2.1549 2.15478C2.46746 1.84222 2.89139 1.66663 3.33341 1.66663H7.50008C7.94211 1.66663 8.36603 1.84222 8.67859 2.15478C8.99115 2.46734 9.16675 2.89127 9.16675 3.33329V5.83329C9.16675 6.27532 8.99115 6.69924 8.67859 7.0118C8.36603 7.32436 7.94211 7.49996 7.50008 7.49996H3.33341C2.89139 7.49996 2.46746 7.32436 2.1549 7.0118C1.84234 6.69924 1.66675 6.27532 1.66675 5.83329V3.33329Z" fill="#7A88A6"/>
<path d="M1.66675 10.8333C1.66675 10.3913 1.84234 9.96734 2.1549 9.65478C2.46746 9.34222 2.89139 9.16663 3.33341 9.16663H7.50008C7.94211 9.16663 8.36603 9.34222 8.67859 9.65478C8.99115 9.96734 9.16675 10.3913 9.16675 10.8333V16.6666C9.16675 17.1087 8.99115 17.5326 8.67859 17.8451C8.36603 18.1577 7.94211 18.3333 7.50008 18.3333H3.33341C2.89139 18.3333 2.46746 18.1577 2.1549 17.8451C1.84234 17.5326 1.66675 17.1087 1.66675 16.6666V10.8333Z" fill="#7A88A6"/>
<path d="M10.8335 3.33329C10.8335 2.89127 11.0091 2.46734 11.3217 2.15478C11.6342 1.84222 12.0581 1.66663 12.5002 1.66663H16.6668C17.1089 1.66663 17.5328 1.84222 17.8453 2.15478C18.1579 2.46734 18.3335 2.89127 18.3335 3.33329V9.16663C18.3335 9.60865 18.1579 10.0326 17.8453 10.3451C17.5328 10.6577 17.1089 10.8333 16.6668 10.8333H12.5002C12.0581 10.8333 11.6342 10.6577 11.3217 10.3451C11.0091 10.0326 10.8335 9.60865 10.8335 9.16663V3.33329Z" fill="#7A88A6"/>
<path d="M10.8335 14.1666C10.8335 13.7246 11.0091 13.3007 11.3217 12.9881C11.6342 12.6755 12.0581 12.4999 12.5002 12.4999H16.6668C17.1089 12.4999 17.5328 12.6755 17.8453 12.9881C18.1579 13.3007 18.3335 13.7246 18.3335 14.1666V16.6666C18.3335 17.1086 18.1579 17.5326 17.8453 17.8451C17.5328 18.1577 17.1089 18.3333 16.6668 18.3333H12.5002C12.0581 18.3333 11.6342 18.1577 11.3217 17.8451C11.0091 17.5326 10.8335 17.1086 10.8335 16.6666V14.1666Z" fill="#7A88A6"/>
</svg>
