<svg width="20" height="21" viewBox="0 0 20 21" fill="none" xmlns="http://www.w3.org/2000/svg">
<path d="M9.16675 10.5C9.16675 10.721 9.25455 10.933 9.41083 11.0892C9.56711 11.2455 9.77907 11.3333 10.0001 11.3333C10.2211 11.3333 10.4331 11.2455 10.5893 11.0892C10.7456 10.933 10.8334 10.721 10.8334 10.5C10.8334 10.279 10.7456 10.067 10.5893 9.91073C10.4331 9.75445 10.2211 9.66666 10.0001 9.66666C9.77907 9.66666 9.56711 9.75445 9.41083 9.91073C9.25455 10.067 9.16675 10.279 9.16675 10.5Z" stroke="#7A88A6" stroke-width="2" stroke-linecap="round" stroke-linejoin="round"/>
<path d="M9.16675 16.3333C9.16675 16.5543 9.25455 16.7663 9.41083 16.9226C9.56711 17.0789 9.77907 17.1667 10.0001 17.1667C10.2211 17.1667 10.4331 17.0789 10.5893 16.9226C10.7456 16.7663 10.8334 16.5543 10.8334 16.3333C10.8334 16.1123 10.7456 15.9004 10.5893 15.7441C10.4331 15.5878 10.2211 15.5 10.0001 15.5C9.77907 15.5 9.56711 15.5878 9.41083 15.7441C9.25455 15.9004 9.16675 16.1123 9.16675 16.3333Z" stroke="#7A88A6" stroke-width="2" stroke-linecap="round" stroke-linejoin="round"/>
<path d="M9.16675 4.66668C9.16675 4.88769 9.25455 5.09965 9.41083 5.25593C9.56711 5.41221 9.77907 5.50001 10.0001 5.50001C10.2211 5.50001 10.4331 5.41221 10.5893 5.25593C10.7456 5.09965 10.8334 4.88769 10.8334 4.66668C10.8334 4.44566 10.7456 4.2337 10.5893 4.07742C10.4331 3.92114 10.2211 3.83334 10.0001 3.83334C9.77907 3.83334 9.56711 3.92114 9.41083 4.07742C9.25455 4.2337 9.16675 4.44566 9.16675 4.66668Z" stroke="#7A88A6" stroke-width="2" stroke-linecap="round" stroke-linejoin="round"/>
</svg>
