<svg width="24" height="24" viewBox="0 0 24 24" fill="none" xmlns="http://www.w3.org/2000/svg">
<path fill-rule="evenodd" clip-rule="evenodd" d="M17.777 18H6.22301C4.39401 18 3.35101 16.16 4.44801 14.872C4.93301 14.302 5.23301 13.625 5.31301 12.915L5.76001 8.975C6.00201 6.851 7.58801 5.107 9.73001 4.374V4.27C9.73001 3.9719 9.78872 3.67672 9.9028 3.40131C10.0169 3.1259 10.1841 2.87566 10.3949 2.66487C10.6057 2.45408 10.8559 2.28687 11.1313 2.17279C11.4067 2.05872 11.7019 2 12 2C12.2981 2 12.5933 2.05872 12.8687 2.17279C13.1441 2.28687 13.3944 2.45408 13.6051 2.66487C13.8159 2.87566 13.9831 3.1259 14.0972 3.40131C14.2113 3.67672 14.27 3.9719 14.27 4.27V4.374C16.412 5.107 17.998 6.851 18.24 8.975L18.687 12.915C18.767 13.625 19.067 14.302 19.552 14.872C20.65 16.161 19.606 18 17.777 18ZM14.972 20.072C14.515 21.198 13.357 22 12 22C10.643 22 9.48501 21.2 9.02801 20.072C9.00394 20.0081 8.99572 19.9392 9.00405 19.8714C9.01238 19.8036 9.037 19.7388 9.07582 19.6826C9.11464 19.6264 9.1665 19.5804 9.22696 19.5486C9.28742 19.5168 9.35469 19.5001 9.42301 19.5H14.577C14.6453 19.5001 14.7126 19.5168 14.7731 19.5486C14.8335 19.5804 14.8854 19.6264 14.9242 19.6826C14.963 19.7388 14.9876 19.8036 14.996 19.8714C15.0043 19.9392 14.9961 20.0081 14.972 20.072Z" fill="#7A88A6"/>
</svg>
