<svg xmlns="http://www.w3.org/2000/svg" width="16" height="16" viewBox="0 0 16 16" fill="none">
<path fill-rule="evenodd" clip-rule="evenodd" d="M7.205 0.5H8.79584C9.67417 0.5 10.3867 1.17167 10.3867 2C10.3868 2.21659 10.4433 2.42943 10.5504 2.61764C10.6576 2.80586 10.8119 2.96299 10.998 3.07365C11.1842 3.18431 11.396 3.24468 11.6125 3.24886C11.8291 3.25305 12.043 3.20089 12.2333 3.0975L12.3183 3.05167C13.0792 2.6375 14.0517 2.88333 14.4908 3.60083L15.2867 4.89917C15.7258 5.61667 15.465 6.53417 14.7042 6.94917C13.8708 7.40167 13.8708 8.59833 14.7042 9.05167C15.465 9.46583 15.7258 10.3833 15.2867 11.1008L14.4908 12.3992C14.0517 13.1167 13.0792 13.3625 12.3175 12.9492L12.2333 12.9025C12.043 12.7991 11.8291 12.747 11.6125 12.7511C11.396 12.7553 11.1842 12.8157 10.998 12.9264C10.8119 13.037 10.6576 13.1941 10.5504 13.3824C10.4433 13.5706 10.3868 13.7834 10.3867 14C10.3867 14.8283 9.67417 15.5 8.795 15.5H7.20417C6.32584 15.5 5.61333 14.8283 5.61333 14C5.61318 13.7834 5.55675 13.5706 5.44957 13.3824C5.34239 13.1941 5.18815 13.037 5.00196 12.9264C4.81577 12.8157 4.60402 12.7553 4.38747 12.7511C4.17091 12.747 3.95699 12.7991 3.76667 12.9025L3.6825 12.9483C2.92083 13.3625 1.94833 13.1167 1.50917 12.3992L0.713335 11.1008C0.274168 10.3833 0.535001 9.46583 1.29583 9.05083C2.12917 8.59833 2.12917 7.40167 1.29583 6.94833C0.535001 6.53417 0.274168 5.61667 0.713335 4.89917L1.50917 3.60083C1.94833 2.88333 2.92083 2.6375 3.6825 3.05083L3.76667 3.0975C3.95699 3.20089 4.17091 3.25305 4.38747 3.24886C4.60402 3.24468 4.81577 3.18431 5.00196 3.07365C5.18815 2.96299 5.34239 2.80586 5.44957 2.61764C5.55675 2.42943 5.61318 2.21659 5.61333 2C5.61333 1.17167 6.32583 0.5 7.205 0.5ZM8 10.5C8.66304 10.5 9.29893 10.2366 9.76777 9.76777C10.2366 9.29893 10.5 8.66304 10.5 8C10.5 7.33696 10.2366 6.70107 9.76777 6.23223C9.29893 5.76339 8.66304 5.5 8 5.5C7.33696 5.5 6.70108 5.76339 6.23223 6.23223C5.76339 6.70107 5.5 7.33696 5.5 8C5.5 8.66304 5.76339 9.29893 6.23223 9.76777C6.70108 10.2366 7.33696 10.5 8 10.5Z" fill="#7A88A6"/>
</svg>