<svg width="24" height="24" viewBox="0 0 24 24" fill="none" xmlns="http://www.w3.org/2000/svg">
<path fill-rule="evenodd" clip-rule="evenodd" d="M9.96804 4.16601C10.854 2.61101 13.146 2.61101 14.032 4.16601L21.704 17.632C22.564 19.143 21.444 21 19.672 21H4.32804C2.55504 21 1.43504 19.143 2.29604 17.632L9.96804 4.16601ZM13 17C13 17.2652 12.8947 17.5196 12.7071 17.7071C12.5196 17.8946 12.2653 18 12 18C11.7348 18 11.4805 17.8946 11.2929 17.7071C11.1054 17.5196 11 17.2652 11 17C11 16.7348 11.1054 16.4804 11.2929 16.2929C11.4805 16.1054 11.7348 16 12 16C12.2653 16 12.5196 16.1054 12.7071 16.2929C12.8947 16.4804 13 16.7348 13 17ZM12.75 9.00001C12.75 8.80109 12.671 8.61033 12.5304 8.46968C12.3897 8.32902 12.199 8.25001 12 8.25001C11.8011 8.25001 11.6104 8.32902 11.4697 8.46968C11.3291 8.61033 11.25 8.80109 11.25 9.00001V14C11.25 14.1989 11.3291 14.3897 11.4697 14.5303C11.6104 14.671 11.8011 14.75 12 14.75C12.199 14.75 12.3897 14.671 12.5304 14.5303C12.671 14.3897 12.75 14.1989 12.75 14V9.00001Z" fill="#D7CF0E"/>
</svg>
