<svg xmlns="http://www.w3.org/2000/svg" width="20" height="20" viewBox="0 0 20 20" fill="none">
<path fill-rule="evenodd" clip-rule="evenodd" d="M9.99984 18.9584C5.05229 18.9584 1.0415 14.9477 1.0415 10.0001C1.0415 5.05253 5.05229 1.04175 9.99984 1.04175C14.9474 1.04175 18.9582 5.05253 18.9582 10.0001C18.9582 14.9477 14.9474 18.9584 9.99984 18.9584ZM13.0891 8.08936C13.4145 7.76393 13.4145 7.23629 13.0891 6.91085C12.7637 6.5854 12.2361 6.58538 11.9106 6.91081L9.99967 8.82158L8.08909 6.91113C7.76359 6.58571 7.23599 6.58572 6.91056 6.91117C6.58514 7.23662 6.58515 7.76426 6.9106 8.08968L8.82109 10.0001L6.9106 11.9105C6.58515 12.2359 6.58514 12.7636 6.91056 13.089C7.23599 13.4144 7.76359 13.4144 8.08909 13.089L9.99967 11.1786L11.9106 13.0893C12.2361 13.4147 12.7637 13.4147 13.0891 13.0893C13.4145 12.7638 13.4145 12.2362 13.0891 11.9108L11.1783 10.0001L13.0891 8.08936Z" fill="#DF7878"/>
</svg>