<svg xmlns="http://www.w3.org/2000/svg" width="20" height="20" viewBox="0 0 20 20" fill="none">
<path fill-rule="evenodd" clip-rule="evenodd" d="M9.99984 18.9584C5.05229 18.9584 1.0415 14.9477 1.0415 10.0001C1.0415 5.05253 5.05229 1.04175 9.99984 1.04175C14.9474 1.04175 18.9582 5.05253 18.9582 10.0001C18.9582 14.9477 14.9474 18.9584 9.99984 18.9584ZM13.7332 7.81471C14.1369 7.59389 14.2853 7.08752 14.0644 6.68373C13.8436 6.27993 13.3373 6.1316 12.9335 6.35243C11.4096 7.1858 10.1495 8.79417 9.30225 10.0914C8.98917 10.5709 8.72167 11.0248 8.50767 11.4093C8.30804 11.2157 8.11032 11.0476 7.93349 10.9077C7.70209 10.7248 7.49385 10.5805 7.34203 10.4811L7.0795 10.318C6.67971 10.09 6.17078 10.2292 5.94277 10.6291C5.71481 11.0287 5.85395 11.5375 6.25352 11.7657L6.42876 11.8752C6.54777 11.9532 6.71454 12.0687 6.89981 12.2152C7.28111 12.5166 7.69255 12.9117 7.95149 13.3447C8.1104 13.6103 8.4035 13.766 8.71259 13.749C9.02159 13.7319 9.29575 13.5447 9.4245 13.2633L9.50642 13.0922C9.56284 12.9768 9.64734 12.8082 9.75734 12.6004C9.97775 12.184 10.2983 11.6144 10.6977 11.0027C11.5172 9.748 12.5903 8.43966 13.7332 7.81471Z" fill="#13B8BA"/>
</svg>