<svg width="112" height="30" viewBox="0 0 112 30" fill="none" xmlns="http://www.w3.org/2000/svg">
<path fill-rule="evenodd" clip-rule="evenodd" d="M31.6679 29.0471C40.4222 22.6379 40.1315 9.4265 32.7156 1.89496C32.6573 1.83701 32.576 1.83701 32.5061 1.88354C32.4478 1.92966 32.4363 2.0223 32.4712 2.09168C36.5921 8.13071 33.9846 17.6404 26.4291 13.4755C21.6675 10.8607 19.1997 6.44148 15.3811 3.01731C12.6335 0.553047 9.53692 -1.13618 6.85961 0.923214C-1.74358 7.54055 -1.58094 20.5904 5.88134 28.1101C5.93966 28.168 6.03289 28.168 6.09121 28.1215C6.14912 28.0754 6.17252 27.9827 6.12612 27.9133C1.84177 21.5854 4.70594 12.3879 12.1333 16.4834C13.9958 17.5013 16.6965 19.8386 20.5735 24.2578C23.3325 27.4044 27.6283 32.0089 31.6679 29.0471Z" fill="#13B8BA"/>
<path d="M28.1405 6.00198C30.003 7.81813 31.2955 10.213 31.7493 12.8854C33.1115 11.8443 33.5654 9.84284 33.5419 8.22299C33.507 6.23338 32.8319 4.28989 31.7144 2.63535L28.1405 6.00198ZM19.3045 4.08134C25.032 3.80381 29.7237 7.9573 30.1895 13.5098C29.6888 13.6837 29.1299 13.6258 28.513 13.4176C26.9762 12.9201 25.3347 11.6015 24.1359 10.5599C22.5292 9.16005 21.0507 7.60999 19.5837 6.05993C19.0133 5.44652 18.4547 4.84494 17.8724 4.24336C18.3381 4.16256 18.8153 4.1046 19.3045 4.08134ZM20.6663 25.7846C20.224 25.8544 19.7702 25.9005 19.3045 25.9238C13.5769 26.1319 8.87328 21.9323 8.40797 16.3794C8.74514 16.2867 9.12955 16.3096 9.54846 16.4022C10.8294 16.703 12.2262 17.6633 13.2389 18.4498C15.6838 20.3357 17.8141 22.6612 19.8864 24.9402C20.1427 25.2177 20.3985 25.5071 20.6663 25.7846ZM10.4335 23.9685C8.5591 22.1519 7.25515 19.7574 6.80134 17.085C5.43907 18.1147 4.98525 20.1276 5.02016 21.7356C5.05507 23.7371 5.73025 25.6805 6.85965 27.3351L10.4335 23.9685Z" fill="#2C3955"/>
<path fill-rule="evenodd" clip-rule="evenodd" d="M106.559 4.01203H96.4306C93.6247 4.01203 91.3314 6.291 91.3314 9.07931V14.2274C91.3314 17.0157 93.6247 19.2947 96.4306 19.2947H106.559C109.353 19.2947 111.658 17.0157 111.658 14.2274V9.07931C111.658 6.291 109.353 4.01203 106.559 4.01203ZM44.5552 19.2947V4.01203H51.0047L58.5134 14.0772H59.7824V4.01203H64.8701V19.2947H58.4087L50.9 9.22991H49.6309V19.2947H44.5552ZM76.1042 10.1204H88.2582V13.1863H76.1042V10.1204ZM73.0191 16.2056L88.2578 16.2403V19.2947H67.9433V4.01203H88.2578V7.06643H73.0191V16.2056ZM104.766 7.06643L98.2118 7.10113C97.222 7.10113 96.4191 7.89901 96.4191 8.88259V14.4474C96.4191 15.4306 97.222 16.2403 98.2118 16.2403H104.778C105.767 16.2403 106.57 15.4306 106.57 14.4474V8.88259C106.57 7.89901 105.755 7.06643 104.766 7.06643Z" fill="#13B8BA"/>
<path d="M54.3809 22.742C54.3809 22.6494 54.4158 22.5686 54.4856 22.5106C54.5554 22.4412 54.6252 22.4065 54.7303 22.4065H54.9283C54.9513 22.4065 54.9862 22.4184 55.0096 22.4412C55.0211 22.4645 55.0326 22.4874 55.0326 22.522V25.565C55.0326 25.6458 55.0096 25.7266 54.9398 25.7846C54.87 25.854 54.8002 25.8887 54.7069 25.8887H54.3809C54.2761 25.8887 54.1595 25.854 54.0667 25.796C53.8572 25.6577 53.4613 25.403 52.9024 25.0328C52.3319 24.6508 51.738 24.2692 51.1327 23.8758C50.5277 23.4709 50.1318 23.2163 49.9339 23.0893C49.9105 23.0661 49.899 23.0661 49.8875 23.0775C49.8636 23.0893 49.8521 23.1122 49.8521 23.124V25.565C49.8521 25.6458 49.8172 25.7266 49.7593 25.7846C49.6895 25.854 49.6078 25.8887 49.5146 25.8887H49.3051C49.2702 25.8887 49.2472 25.8772 49.2353 25.854C49.2119 25.8426 49.2004 25.8193 49.2004 25.7846V22.742C49.2004 22.6494 49.2353 22.5686 49.3051 22.5106C49.3634 22.4412 49.4447 22.4065 49.5265 22.4065H49.8291C49.9573 22.4065 50.0616 22.4412 50.1667 22.5106L54.2995 25.2177C54.3225 25.2295 54.3459 25.2295 54.3574 25.2177C54.3809 25.2063 54.3809 25.1949 54.3809 25.1716V22.742ZM45.0557 22.742C45.0557 22.6494 45.091 22.5686 45.1608 22.5106C45.2187 22.4412 45.3004 22.4065 45.3937 22.4065H45.5916C45.6265 22.4065 45.6495 22.4184 45.6729 22.4412C45.6963 22.4645 45.7078 22.4874 45.7078 22.522V25.565C45.7078 25.6458 45.6729 25.7266 45.6146 25.7846C45.5448 25.854 45.4635 25.8887 45.3703 25.8887H45.1723C45.1374 25.8887 45.1144 25.8772 45.091 25.854C45.0676 25.8426 45.0557 25.8193 45.0557 25.7846V22.742Z" fill="#2C3955"/>
<path d="M63.205 22.7767C63.205 22.8694 63.1816 22.9387 63.1118 23.0081C63.042 23.0661 62.9606 23.1008 62.8789 23.1008H58.4204C58.3272 23.1008 58.2455 23.1469 58.1757 23.2277C58.1058 23.3089 58.0824 23.413 58.0824 23.5056C58.0824 23.6097 58.1058 23.6791 58.1757 23.7485C58.2455 23.8178 58.3272 23.8644 58.4204 23.8644H62.2152C62.5064 23.8644 62.7512 23.957 62.9606 24.1419C63.1586 24.3268 63.2633 24.5586 63.2633 24.8475C63.2633 25.1369 63.1586 25.3797 62.9606 25.5879C62.7512 25.7846 62.4949 25.8887 62.2152 25.8887H57.5937C57.5588 25.8887 57.5354 25.8772 57.5124 25.8544C57.5005 25.8426 57.489 25.8193 57.489 25.7846V25.5303C57.489 25.4377 57.5124 25.3565 57.5822 25.2871C57.6401 25.2296 57.7218 25.1949 57.8147 25.1949H62.2621C62.3553 25.1949 62.4366 25.1598 62.5183 25.0904C62.5881 25.0214 62.6111 24.9402 62.6111 24.8475C62.6111 24.7435 62.5881 24.6741 62.5183 24.6047C62.4366 24.5353 62.3553 24.5006 62.2621 24.5006H58.4783C58.1757 24.5006 57.9313 24.408 57.7333 24.2113C57.5239 24.0264 57.4307 23.795 57.4307 23.5056C57.4307 23.3207 57.4775 23.1469 57.5703 22.9734C57.6635 22.8 57.7917 22.6612 57.9547 22.5686C58.1058 22.4645 58.2923 22.4065 58.4783 22.4065H63.1003C63.1352 22.4065 63.1586 22.4184 63.1816 22.4412C63.1935 22.4645 63.205 22.4878 63.205 22.522V22.7767Z" fill="#2C3955"/>
<path d="M70.7256 22.742C70.7256 22.6494 70.7606 22.5686 70.8304 22.5106C70.9002 22.4412 70.9704 22.4065 71.0632 22.4065H71.2612C71.2961 22.4065 71.331 22.4184 71.3544 22.4412C71.3659 22.4645 71.3774 22.4874 71.3774 22.522V24.2227C71.3774 24.6855 71.2263 25.079 70.9002 25.403C70.5745 25.7266 70.1786 25.8887 69.7014 25.8887H67.2097C66.7444 25.8887 66.36 25.7266 66.0343 25.403C65.7082 25.079 65.5452 24.6855 65.5452 24.2227V22.742C65.5452 22.6494 65.5686 22.5686 65.6384 22.5106C65.7082 22.4412 65.778 22.4065 65.8713 22.4065H66.0807C66.1041 22.4065 66.139 22.4184 66.162 22.4412C66.1854 22.4645 66.1973 22.4874 66.1973 22.522V24.2345C66.1973 24.4888 66.2902 24.7202 66.4766 24.9055C66.6627 25.1022 66.884 25.1949 67.1518 25.1949H69.7593C70.0271 25.1949 70.2599 25.1022 70.4464 24.9055C70.6324 24.7202 70.7256 24.4888 70.7256 24.2345V22.742Z" fill="#2C3955"/>
<path d="M79.55 25.5649C79.5849 25.5881 79.6198 25.6342 79.6198 25.6922C79.6313 25.7502 79.6083 25.7848 79.5734 25.831C79.5385 25.8657 79.4917 25.8889 79.4338 25.8889H79.1426C78.9911 25.8889 78.8514 25.8424 78.7352 25.7616L77.2801 24.6278C77.152 24.547 77.0119 24.5005 76.8723 24.5005H74.4858C74.4509 24.5005 74.4394 24.5237 74.4394 24.547V25.5649C74.4394 25.6461 74.4045 25.7269 74.3346 25.7848C74.2648 25.8542 74.1946 25.8889 74.0903 25.8889H73.8923C73.8574 25.8889 73.834 25.8775 73.8106 25.8542C73.7991 25.8424 73.7876 25.8195 73.7876 25.7848V24.1883C73.7876 24.0956 73.8106 24.0148 73.8804 23.9569C73.9502 23.8875 74.0205 23.8642 74.1133 23.8642H78.6186C78.7233 23.8642 78.805 23.8181 78.8748 23.7487C78.9447 23.6789 78.9796 23.5867 78.9796 23.494C78.9681 23.4014 78.9332 23.3092 78.8633 23.2279C78.7816 23.1471 78.7003 23.1006 78.6071 23.1006H74.1133C74.0205 23.1006 73.9502 23.0659 73.8804 23.008C73.8106 22.9386 73.7876 22.8696 73.7876 22.7766V22.5223C73.7876 22.4876 73.7991 22.4643 73.8106 22.4415C73.834 22.4182 73.8574 22.4068 73.8923 22.4068H78.5722C78.8633 22.4068 79.1077 22.5223 79.3172 22.7537C79.5385 22.9851 79.6313 23.2512 79.6198 23.552C79.6198 23.7369 79.5615 23.8875 79.4568 24.0377C79.3636 24.1883 79.2358 24.2923 79.0728 24.385C78.9098 24.4658 78.7352 24.5005 78.5373 24.5005H78.2461C78.2346 24.5005 78.2231 24.5005 78.2112 24.5237C78.2112 24.5352 78.2112 24.547 78.2231 24.547L79.55 25.5649Z" fill="#2C3955"/>
<path d="M81.5408 25.8889C81.5059 25.8889 81.4825 25.8775 81.471 25.8424C81.4476 25.8195 81.4595 25.7848 81.471 25.7616L83.7758 22.6611C83.8341 22.5917 83.9273 22.5223 84.0321 22.4762C84.1368 22.4415 84.2419 22.4068 84.3466 22.4068C84.4161 22.4068 84.4863 22.4182 84.5561 22.4415C84.6259 22.4529 84.6957 22.4876 84.7656 22.5223C84.8239 22.5684 84.8822 22.6149 84.9171 22.6611L87.2219 25.7616C87.2453 25.7848 87.2453 25.8195 87.2334 25.8424C87.2219 25.8775 87.1985 25.8889 87.1521 25.8889H86.7213C86.5816 25.8889 86.4535 25.831 86.3722 25.7155L84.3931 23.0545C84.3816 23.0431 84.3696 23.0312 84.3466 23.0312C84.3347 23.0312 84.3117 23.0431 84.2998 23.0545L82.3207 25.7155C82.2394 25.831 82.1112 25.8889 81.9716 25.8889H81.5408Z" fill="#2C3955"/>
<path d="M94.4515 22.742C94.4515 22.6494 94.4864 22.5686 94.5562 22.5106C94.626 22.4412 94.6958 22.4065 94.8006 22.4065H94.9985C95.0219 22.4065 95.0568 22.4184 95.0802 22.4412C95.0917 22.4645 95.1032 22.4874 95.1032 22.522V25.565C95.1032 25.6458 95.0802 25.7266 95.01 25.7846C94.9402 25.854 94.8708 25.8887 94.7772 25.8887H94.4515C94.3467 25.8887 94.2301 25.854 94.1369 25.796C93.9274 25.6577 93.5315 25.403 92.973 25.0328C92.4025 24.6508 91.8087 24.2692 91.2033 23.8758C90.5979 23.4709 90.202 23.2163 90.0041 23.0893C89.9811 23.0661 89.9692 23.0661 89.9577 23.0775C89.9343 23.0893 89.9228 23.1122 89.9228 23.124V25.565C89.9228 25.6458 89.8879 25.7266 89.8295 25.7846C89.7597 25.854 89.6784 25.8887 89.5852 25.8887H89.3757C89.3408 25.8887 89.3174 25.8772 89.3059 25.854C89.2825 25.8426 89.271 25.8193 89.271 25.7846V22.742C89.271 22.6494 89.3059 22.5686 89.3757 22.5106C89.434 22.4412 89.5154 22.4065 89.5967 22.4065H89.8998C90.0275 22.4065 90.1441 22.4412 90.2369 22.5106L94.3697 25.2177C94.3932 25.2295 94.4166 25.2295 94.4281 25.2177C94.4515 25.2063 94.4515 25.1949 94.4515 25.1716V22.742Z" fill="#2C3955"/>
<path d="M99.0849 23.1007C98.8171 23.1007 98.5962 23.1934 98.4097 23.3783C98.2233 23.575 98.1305 23.8064 98.1305 24.0725V24.2345C98.1305 24.4888 98.2233 24.7202 98.4097 24.9055C98.5962 25.1022 98.8171 25.1948 99.0849 25.1948H102.985C103.02 25.1948 103.066 25.1948 103.113 25.2177C103.148 25.2409 103.183 25.2642 103.218 25.2989C103.253 25.3217 103.264 25.3564 103.288 25.3911C103.311 25.4377 103.311 25.4838 103.311 25.5303V25.7846C103.311 25.8192 103.299 25.8425 103.276 25.8543C103.264 25.8772 103.229 25.889 103.194 25.889H99.1432C98.6775 25.889 98.2931 25.727 97.9674 25.403C97.6413 25.0789 97.4783 24.6855 97.4783 24.2231V24.0725C97.4783 23.6097 97.6413 23.2162 97.9674 22.8926C98.2931 22.5685 98.6775 22.4065 99.1432 22.4065H103.194C103.229 22.4065 103.264 22.4183 103.276 22.4412C103.299 22.4645 103.311 22.4877 103.311 22.5224V22.7767C103.311 22.8693 103.276 22.9387 103.218 23.0081C103.148 23.066 103.066 23.1007 102.985 23.1007H99.0849Z" fill="#2C3955"/>
<path d="M110.808 23.1007H106.92C106.652 23.1007 106.419 23.1934 106.233 23.3783C106.058 23.575 105.954 23.8064 105.954 24.0725V24.2345C105.954 24.4888 106.058 24.7202 106.233 24.9055C106.419 25.1022 106.652 25.1948 106.92 25.1948H110.808C110.854 25.1948 110.901 25.1948 110.936 25.2177C110.983 25.2409 111.018 25.2642 111.052 25.2989C111.076 25.3217 111.099 25.3564 111.122 25.3911C111.134 25.4377 111.146 25.4838 111.146 25.5303V25.7846C111.146 25.8192 111.134 25.8425 111.111 25.8543C111.099 25.8772 111.064 25.889 111.029 25.889H106.978C106.512 25.889 106.128 25.727 105.802 25.403C105.476 25.0789 105.302 24.6855 105.302 24.2231V24.0725C105.302 23.6097 105.476 23.2162 105.802 22.8926C106.128 22.5685 106.512 22.4065 106.978 22.4065H111.029C111.064 22.4065 111.099 22.4183 111.111 22.4412C111.134 22.4645 111.146 22.4877 111.146 22.5224V22.7767C111.146 22.8693 111.111 22.9387 111.052 23.0081C110.983 23.066 110.901 23.1007 110.808 23.1007ZM106.92 24.4426C106.838 24.4426 106.757 24.408 106.699 24.3504C106.629 24.292 106.605 24.2112 106.605 24.1304C106.605 24.0378 106.629 23.9684 106.71 23.899C106.769 23.8296 106.85 23.8064 106.932 23.8064H110.389C110.412 23.8064 110.447 23.8178 110.459 23.8296C110.482 23.8525 110.493 23.8758 110.493 23.9104V24.1072C110.493 24.1998 110.459 24.2806 110.401 24.3386C110.331 24.408 110.261 24.4426 110.156 24.4426H106.92Z" fill="#2C3955"/>
</svg>
